# xmcd
#
# Track frame offsets:
#	150
#	12880
#	26468
#	41454
#	54523
#	67631
#	79526
#	99747
#	111012
#	128873
#
# Disc length: 1857 seconds
#
# Revision: 0
# Processed by: cddbd v1.5.2PL0 Copyright (c) Steve Scherf et al.
# Submitted via: dBpowerAMP V4.0
#
DISCID=6e073f0a
DTITLE=Two Tons Of Steel - Oh No!
DYEAR=1999
DGENRE=Country
TTITLE0=Oh No!
TTITLE1=Standing On A Rock
TTITLE2=Southbound Train
TTITLE3=Old Nights
TTITLE4=Don't Stand Too Close
TTITLE5=Big, Big Love
TTITLE6=Havana Moon
TTITLE7=14 Days
TTITLE8=Heartache Of A Fool
TTITLE9=Two Tons Of Steel
EXTD=
EXTT0=
EXTT1=
EXTT2=
EXTT3=
EXTT4=
EXTT5=
EXTT6=
EXTT7=
EXTT8=
EXTT9=
PLAYORDER=
